<?xml version="1.0" standalone="no"?>
<!DOCTYPE svg PUBLIC "-//W3C//DTD SVG 20010904//EN"
 "http://www.w3.org/TR/2001/REC-SVG-20010904/DTD/svg10.dtd">
<svg version="1.0" xmlns="http://www.w3.org/2000/svg"
 width="700.000000pt" height="700.000000pt" viewBox="0 0 700.000000 700.000000"
 preserveAspectRatio="xMidYMid meet">
<g transform="translate(0.000000,700.000000) scale(0.100000,-0.100000)"
fill="#000000" stroke="none">
<path d="M3187 6974 c-1 -1 -44 -5 -95 -8 -52 -3 -121 -10 -155 -15 -34 -6
-80 -13 -102 -16 -23 -3 -52 -8 -65 -11 -32 -7 -64 -13 -92 -18 -42 -7 -232
-57 -298 -78 -272 -85 -513 -188 -746 -318 -112 -62 -298 -179 -344 -216 -27
-22 -137 -108 -176 -139 -55 -42 -332 -320 -380 -380 -21 -27 -41 -52 -44 -55
-3 -3 -28 -34 -55 -70 -28 -36 -52 -67 -55 -70 -3 -3 -42 -59 -86 -125 -184
-274 -342 -588 -433 -859 -45 -134 -47 -189 -11 -296 66 -199 209 -337 400
-386 87 -22 256 -14 360 18 62 18 160 79 207 126 41 43 133 184 133 205 0 5 7
23 14 40 24 51 53 144 137 437 44 151 82 282 84 290 31 120 143 417 193 510
116 216 324 429 555 569 284 172 689 310 982 336 70 6 334 6 385 0 19 -2 64
-6 100 -10 82 -7 252 -39 350 -65 41 -12 82 -22 90 -25 153 -39 558 -217 621
-271 8 -8 19 -14 22 -14 11 0 152 -92 155 -101 2 -5 8 -9 14 -9 23 0 230 -170
321 -265 191 -197 237 -398 116 -499 -91 -76 -270 -128 -529 -151 -69 -6 -150
-13 -215 -20 -22 -2 -69 -6 -105 -10 -116 -10 -289 -37 -402 -60 -37 -8 -80
-17 -95 -20 -16 -3 -53 -12 -83 -20 -30 -9 -66 -18 -79 -21 -42 -9 -284 -91
-381 -129 -350 -139 -757 -356 -1124 -601 -65 -44 -125 -83 -134 -89 -19 -13
-26 -17 -144 -109 -100 -78 -120 -94 -197 -161 -149 -131 -302 -285 -436 -441
-27 -31 -55 -62 -60 -68 -6 -6 -54 -67 -107 -136 -300 -392 -541 -830 -718
-1306 -52 -138 -56 -172 -31 -228 11 -25 32 -63 47 -83 15 -21 46 -63 68 -93
221 -299 562 -622 886 -837 168 -111 429 -252 580 -313 30 -12 69 -28 86 -36
54 -24 297 -101 384 -122 132 -33 217 -51 258 -57 20 -2 46 -7 57 -9 12 -2 48
-7 80 -11 33 -4 71 -9 85 -11 53 -9 241 -18 375 -18 201 0 368 12 545 40 52 8
112 17 133 20 21 3 115 25 210 49 295 74 573 184 806 317 46 26 86 48 88 48
13 0 289 189 349 239 17 14 52 44 80 66 423 344 798 861 1019 1405 68 167 157
449 180 573 3 12 12 58 21 102 9 44 17 89 19 100 1 11 6 47 10 80 4 33 9 68
11 79 24 128 23 455 -1 706 -47 473 -206 983 -427 1369 -26 46 -48 88 -48 92
0 5 -4 9 -10 9 -5 0 -10 5 -10 10 0 14 -140 219 -209 305 -312 392 -739 746
-1156 958 -218 111 -583 247 -735 274 -14 2 -50 10 -80 18 -30 8 -68 16 -85
20 -114 21 -200 35 -249 40 -31 4 -66 8 -76 10 -62 12 -542 29 -553 19z m1457
-3209 c308 -66 578 -278 700 -550 15 -33 31 -67 35 -75 5 -8 15 -40 24 -70
118 -408 -27 -839 -366 -1092 -298 -221 -694 -260 -1035 -103 -301 140 -520
437 -570 775 -12 85 -3 313 14 341 2 3 6 21 9 39 16 91 98 257 179 365 26 35
139 149 178 181 98 79 300 171 418 190 19 3 53 9 75 13 66 12 255 5 339 -14z"/>
</g>
</svg>
