<svg preserveAspectRatio="xMidYMid meet" viewBox="0 0 8 14" stroke-width='0' xmlns="http://www.w3.org/2000/svg">
<path fill-rule="evenodd" clip-rule="evenodd" d="M6.85506 13.3538C6.90162 13.3074 6.93857 13.2522 6.96377 13.1915C6.98898 13.1307 7.00195 13.0656 7.00195 12.9998C7.00195 12.9341 6.98898 12.869 6.96377 12.8082C6.93857 12.7475 6.90162 12.6923 6.85506 12.6458L1.20806 6.99984L6.85506 1.35384C6.90155 1.30735 6.93842 1.25216 6.96358 1.19142C6.98874 1.13068 7.00169 1.06558 7.00169 0.999839C7.00169 0.934095 6.98874 0.868995 6.96358 0.808255C6.93842 0.747516 6.90155 0.692327 6.85506 0.645839C6.80857 0.599351 6.75338 0.562474 6.69264 0.537315C6.6319 0.512156 6.5668 0.499207 6.50106 0.499207C6.43532 0.499207 6.37022 0.512156 6.30948 0.537315C6.24874 0.562474 6.19355 0.599351 6.14706 0.645839L0.147059 6.64584C0.100496 6.69228 0.0635538 6.74746 0.0383472 6.80821C0.0131407 6.86895 0.000165939 6.93407 0.000165939 6.99984C0.000165939 7.06561 0.0131407 7.13073 0.0383472 7.19147C0.0635538 7.25222 0.100496 7.30739 0.147059 7.35384L6.14706 13.3538C6.19351 13.4004 6.24868 13.4373 6.30943 13.4626C6.37017 13.4878 6.43529 13.5007 6.50106 13.5007C6.56683 13.5007 6.63195 13.4878 6.69269 13.4626C6.75344 13.4373 6.80861 13.4004 6.85506 13.3538Z" />
</svg>
