<svg preserveAspectRatio="xMidYMid meet" viewBox="0 0 10 10" stroke-width='0' xmlns="http://www.w3.org/2000/svg">
<path d="M0.211267 0.209802C0.277604 0.143298 0.356409 0.0905335 0.443168 0.0545322C0.529928 0.0185308 0.622938 0 0.716871 0C0.810804 0 0.903814 0.0185308 0.990574 0.0545322C1.07733 0.0905335 1.15614 0.143298 1.22248 0.209802L5.00165 3.99041L8.78083 0.209802C8.84723 0.143405 8.92605 0.0907363 9.0128 0.0548025C9.09955 0.0188688 9.19253 0.000373895 9.28643 0.000373895C9.38033 0.000373895 9.47331 0.0188688 9.56006 0.0548025C9.64682 0.0907363 9.72564 0.143405 9.79204 0.209802C9.85843 0.276199 9.9111 0.355023 9.94704 0.441775C9.98297 0.528527 10.0015 0.621507 10.0015 0.715406C10.0015 0.809306 9.98297 0.902286 9.94704 0.989038C9.9111 1.07579 9.85843 1.15461 9.79204 1.22101L6.01143 5.00019L9.79204 8.77936C9.85843 8.84576 9.9111 8.92459 9.94704 9.01134C9.98297 9.09809 10.0015 9.19107 10.0015 9.28497C10.0015 9.37887 9.98297 9.47185 9.94704 9.5586C9.9111 9.64535 9.85843 9.72418 9.79204 9.79057C9.72564 9.85697 9.64682 9.90964 9.56006 9.94557C9.47331 9.98151 9.38033 10 9.28643 10C9.19253 10 9.09955 9.98151 9.0128 9.94557C8.92605 9.90964 8.84723 9.85697 8.78083 9.79057L5.00165 6.00997L1.22248 9.79057C1.15608 9.85697 1.07725 9.90964 0.990503 9.94557C0.903751 9.98151 0.810771 10 0.716871 10C0.622972 10 0.529992 9.98151 0.44324 9.94557C0.356488 9.90964 0.277664 9.85697 0.211267 9.79057C0.14487 9.72418 0.0922011 9.64535 0.0562674 9.5586C0.0203336 9.47185 0.00183874 9.37887 0.00183874 9.28497C0.00183874 9.19107 0.0203336 9.09809 0.0562674 9.01134C0.0922011 8.92459 0.14487 8.84576 0.211267 8.77936L3.99187 5.00019L0.211267 1.22101C0.144763 1.15467 0.0919984 1.07587 0.055997 0.989109C0.0199956 0.902349 0.00146484 0.809339 0.00146484 0.715406C0.00146484 0.621474 0.0199956 0.528463 0.055997 0.441704C0.0919984 0.354944 0.144763 0.276139 0.211267 0.209802Z" />
</svg>
