<svg preserveAspectRatio="xMidYMid meet" viewBox="0 0 17 16" fill="none" stroke="none" stroke-width='0' xmlns="http://www.w3.org/2000/svg">
<rect x="0.00146484" width="16" height="16" rx="3" />
<path d="M3.21127 3.2098C3.2776 3.1433 3.35641 3.09053 3.44317 3.05453C3.52993 3.01853 3.62294 3 3.71687 3C3.8108 3 3.90381 3.01853 3.99057 3.05453C4.07733 3.09053 4.15614 3.1433 4.22248 3.2098L8.00165 6.99041L11.7808 3.2098C11.8472 3.14341 11.926 3.09074 12.0128 3.0548C12.0996 3.01887 12.1925 3.00037 12.2864 3.00037C12.3803 3.00037 12.4733 3.01887 12.5601 3.0548C12.6468 3.09074 12.7256 3.14341 12.792 3.2098C12.8584 3.2762 12.9111 3.35502 12.947 3.44178C12.983 3.52853 13.0015 3.62151 13.0015 3.71541C13.0015 3.80931 12.983 3.90229 12.947 3.98904C12.9111 4.07579 12.8584 4.15461 12.792 4.22101L9.01143 8.00019L12.792 11.7794C12.8584 11.8458 12.9111 11.9246 12.947 12.0113C12.983 12.0981 13.0015 12.1911 13.0015 12.285C13.0015 12.3789 12.983 12.4718 12.947 12.5586C12.9111 12.6454 12.8584 12.7242 12.792 12.7906C12.7256 12.857 12.6468 12.9096 12.5601 12.9456C12.4733 12.9815 12.3803 13 12.2864 13C12.1925 13 12.0996 12.9815 12.0128 12.9456C11.926 12.9096 11.8472 12.857 11.7808 12.7906L8.00165 9.00997L4.22248 12.7906C4.15608 12.857 4.07725 12.9096 3.9905 12.9456C3.90375 12.9815 3.81077 13 3.71687 13C3.62297 13 3.52999 12.9815 3.44324 12.9456C3.35649 12.9096 3.27766 12.857 3.21127 12.7906C3.14487 12.7242 3.0922 12.6454 3.05627 12.5586C3.02033 12.4718 3.00184 12.3789 3.00184 12.285C3.00184 12.1911 3.02033 12.0981 3.05627 12.0113C3.0922 11.9246 3.14487 11.8458 3.21127 11.7794L6.99187 8.00019L3.21127 4.22101C3.14476 4.15467 3.092 4.07587 3.056 3.98911C3.02 3.90235 3.00146 3.80934 3.00146 3.71541C3.00146 3.62147 3.02 3.52846 3.056 3.4417C3.092 3.35494 3.14476 3.27614 3.21127 3.2098Z" fill="white"/>
</svg>
