<svg preserveAspectRatio="xMidYMid meet" viewBox="0 0 11 10" fill="white" stroke-width='0' xmlns="http://www.w3.org/2000/svg">
<path d="M9.73744 0.970239C9.80569 0.900605 9.88714 0.845287 9.97703 0.807522C10.0669 0.769757 10.1634 0.750305 10.2609 0.750305C10.3584 0.750305 10.455 0.769757 10.5449 0.807522C10.6347 0.845287 10.7162 0.900605 10.7844 0.970239C11.0704 1.25924 11.0744 1.72624 10.7944 2.02024L4.88144 9.01024C4.81431 9.08396 4.73284 9.14321 4.64202 9.18436C4.5512 9.22552 4.45294 9.24771 4.35325 9.24958C4.25356 9.25145 4.15454 9.23296 4.06224 9.19525C3.96994 9.15754 3.8863 9.10139 3.81645 9.03024L0.218445 5.38424C0.0796822 5.24272 0.00195312 5.05243 0.00195312 4.85424C0.00195312 4.65604 0.0796822 4.46575 0.218445 4.32424C0.286691 4.25461 0.368144 4.19929 0.458034 4.16152C0.547924 4.12376 0.644444 4.10431 0.741945 4.10431C0.839446 4.10431 0.935967 4.12376 1.02586 4.16152C1.11575 4.19929 1.1972 4.25461 1.26544 4.32424L4.31744 7.41724L9.71744 0.992239C9.72366 0.984511 9.73034 0.977164 9.73744 0.970239Z" />
</svg>
