<svg width="14" height="14" viewBox="0 0 14 14" fill="none" xmlns="http://www.w3.org/2000/svg">
<path d="M9.63586 1.57867e-06C9.94248 -0.000696485 10.1849 0.230188 10.1856 0.538034L10.1864 1.06277C12.1758 1.21389 13.49 2.52784 13.4921 4.54283L13.5 10.4409C13.5028 12.6378 12.0788 13.9895 9.7963 13.993L4.22081 14C1.95253 14.0028 0.510706 12.6189 0.507853 10.4157L0.500005 4.5869C0.497157 2.55862 1.765 1.24818 3.75446 1.07117L3.75375 0.546429C3.75304 0.238584 3.98835 0.00699966 4.3021 0.00699966C4.61585 0.00630001 4.85116 0.237184 4.85188 0.54503L4.85259 1.03478L9.08823 1.02919L9.08751 0.539433C9.0868 0.231587 9.32211 0.000702814 9.63586 1.57867e-06ZM9.9268 9.93432H9.91967C9.59165 9.94202 9.32853 10.2086 9.33566 10.5304C9.33638 10.8523 9.60092 11.1174 9.92894 11.1244C10.2634 11.1237 10.5343 10.8572 10.5336 10.5283C10.5336 10.1995 10.2619 9.93432 9.9268 9.93432ZM4.0511 9.93502C3.72309 9.94902 3.46638 10.2156 3.46709 10.5374C3.48207 10.8593 3.75304 11.1111 4.08105 11.0964C4.40264 11.0824 4.65863 10.8159 4.64366 10.494C4.63653 10.1792 4.37198 9.93432 4.0511 9.93502ZM6.98895 9.93152C6.66094 9.94622 6.40494 10.2121 6.40494 10.5339C6.41992 10.8558 6.69088 11.1069 7.0189 11.0929C7.33978 11.0783 7.59648 10.8124 7.58151 10.4898C7.57438 10.1757 7.30983 9.93083 6.98895 9.93152ZM4.04753 7.41628C3.71952 7.43028 3.46353 7.69685 3.46424 8.01868C3.4785 8.34052 3.75018 8.5924 4.0782 8.5777C4.39908 8.56371 4.65507 8.29714 4.64009 7.97531C4.63296 7.66046 4.36913 7.41559 4.04753 7.41628ZM6.9861 7.3918C6.65808 7.40579 6.40138 7.67236 6.40209 7.9942C6.41635 8.31604 6.68803 8.56721 7.01604 8.55322C7.33693 8.53852 7.59292 8.27266 7.57866 7.95082C7.57081 7.63598 7.30698 7.3911 6.9861 7.3918ZM9.92394 7.3953C9.59593 7.40229 9.33923 7.66116 9.33994 7.983V7.9907C9.34707 8.31254 9.61804 8.55671 9.94676 8.54972C10.2676 8.54202 10.5236 8.27546 10.5165 7.95362C10.5015 7.64577 10.2441 7.3946 9.92394 7.3953ZM9.08965 2.10665L4.85402 2.11224L4.85473 2.67826C4.85473 2.97981 4.62013 3.21769 4.30638 3.21769C3.99263 3.21839 3.7566 2.98121 3.7566 2.67966L3.75589 2.14093C2.3654 2.27596 1.596 3.06797 1.59813 4.58551L1.59885 4.8031L12.3947 4.7891V4.54423C12.3641 3.03998 11.5854 2.25078 10.1878 2.13323L10.1885 2.67196C10.1885 2.97281 9.94676 3.21139 9.64014 3.21139C9.32639 3.21209 9.09037 2.97421 9.09037 2.67336L9.08965 2.10665Z" fill="#BCC2CE"/>
</svg>
