<svg width="20" height="20" viewBox="0 0 20 20" fill="none" stroke-width="1.5" stroke-linecap="round" stroke-linejoin="round" xmlns="http://www.w3.org/2000/svg">
<path d="M18 8.2H2M13.5556 1V4.6M6.44444 1V4.6M6.26667 19H13.7333C15.2268 19 15.9735 19 16.544 18.7057C17.0457 18.4469 17.4537 18.0338 17.7094 17.5258C18 16.9482 18 16.1921 18 14.68V7.12C18 5.60786 18 4.85179 17.7094 4.27423C17.4537 3.76619 17.0457 3.35314 16.544 3.09428C15.9735 2.8 15.2268 2.8 13.7333 2.8H6.26667C4.77319 2.8 4.02646 2.8 3.45603 3.09428C2.95426 3.35314 2.54631 3.76619 2.29065 4.27423C2 4.85179 2 5.60786 2 7.12V14.68C2 16.1921 2 16.9482 2.29065 17.5258C2.54631 18.0338 2.95426 18.4469 3.45603 18.7057C4.02646 19 4.77319 19 6.26667 19Z" />
</svg>
