<svg preserveAspectRatio="xMidYMid meet" viewBox="0 0 12 4" fill="none" stroke="none" stroke-width='0' xmlns="http://www.w3.org/2000/svg">
<path d="M1.81475 3.128C1.37742 3.128 1.00942 2.97867 0.71075 2.68C0.412083 2.38133 0.26275 2.008 0.26275 1.56C0.26275 1.10133 0.412083 0.733333 0.71075 0.456C1.00942 0.168 1.37742 0.0239999 1.81475 0.0239999C2.25208 0.0239999 2.62008 0.168 2.91875 0.456C3.21742 0.733333 3.36675 1.10133 3.36675 1.56C3.36675 2.008 3.21742 2.38133 2.91875 2.68C2.62008 2.97867 2.25208 3.128 1.81475 3.128ZM6.00225 3.128C5.56492 3.128 5.19692 2.97867 4.89825 2.68C4.59958 2.38133 4.45025 2.008 4.45025 1.56C4.45025 1.10133 4.59958 0.733333 4.89825 0.456C5.19692 0.168 5.56492 0.0239999 6.00225 0.0239999C6.43958 0.0239999 6.80758 0.168 7.10625 0.456C7.40492 0.733333 7.55425 1.10133 7.55425 1.56C7.55425 2.008 7.40492 2.38133 7.10625 2.68C6.80758 2.97867 6.43958 3.128 6.00225 3.128ZM10.1898 3.128C9.75242 3.128 9.38442 2.97867 9.08575 2.68C8.78708 2.38133 8.63775 2.008 8.63775 1.56C8.63775 1.10133 8.78708 0.733333 9.08575 0.456C9.38442 0.168 9.75242 0.0239999 10.1898 0.0239999C10.6271 0.0239999 10.9951 0.168 11.2938 0.456C11.5924 0.733333 11.7418 1.10133 11.7418 1.56C11.7418 2.008 11.5924 2.38133 11.2938 2.68C10.9951 2.97867 10.6271 3.128 10.1898 3.128Z" />
</svg>
