<svg width="141" height="140" viewBox="0 0 141 140" fill="none" xmlns="http://www.w3.org/2000/svg">
<path d="M15.0757 75.0865L1.37352 88.7613C0.20883 89.9236 0.20883 91.8082 1.37352 92.9706L9.18023 100.762C10.3449 101.924 12.2332 101.924 13.3979 100.762L27.1001 87.0869L40.8022 100.762C41.9669 101.924 43.8552 101.924 45.0199 100.762L52.8266 92.9706C53.9913 91.8082 53.9913 89.9236 52.8266 88.7613L39.1245 75.0865L52.8266 61.4118C53.9913 60.2494 53.9913 58.3649 52.8266 57.2025L45.0199 49.4114C43.8552 48.2491 41.9669 48.2491 40.8022 49.4114L27.1001 63.0862L13.3979 49.4114C12.2332 48.2491 10.3449 48.2491 9.18023 49.4114L1.37352 57.2025C0.20883 58.3649 0.208827 60.2494 1.37351 61.4118L15.0757 75.0865Z" />
<path d="M87.434 123.053L79.7136 132.457C79.0176 133.305 79.142 134.555 79.9914 135.25L85.2511 139.551C86.1004 140.245 87.3532 140.121 88.0491 139.273L95.7696 129.87L105.192 137.575C106.041 138.269 107.294 138.145 107.99 137.297L112.3 132.048C112.996 131.201 112.871 129.95 112.022 129.256L102.599 121.551L110.32 112.147C111.016 111.299 110.891 110.049 110.042 109.355L104.782 105.054C103.933 104.359 102.68 104.483 101.984 105.331L94.2638 114.735L84.8413 107.03C83.992 106.335 82.7392 106.459 82.0433 107.307L77.7337 112.556C77.0378 113.404 77.1622 114.654 78.0115 115.348L87.434 123.053Z" />
<path d="M89.9144 33.2649L71.2389 46.8967C69.0231 48.5141 68.5406 51.6178 70.1612 53.8292L76.912 63.0408C78.5326 65.2521 81.6426 65.7336 83.8584 64.1163L102.534 50.4845L116.193 69.1227C117.814 71.334 120.924 71.8155 123.139 70.1982L132.369 63.4609C134.585 61.8435 135.068 58.7398 133.447 56.5284L119.788 37.8902L138.463 24.2585C140.679 22.6411 141.162 19.5373 139.541 17.326L132.79 8.1144C131.17 5.90304 128.06 5.42152 125.844 7.03888L107.168 20.6707L93.5094 2.03251C91.8888 -0.178846 88.7787 -0.660372 86.563 0.956994L77.333 7.69425C75.1172 9.31162 74.6347 12.4154 76.2553 14.6268L89.9144 33.2649Z" />
</svg>
