<svg viewBox="0 0 30 29" fill="none" preserveAspectRatio="xMinYMid meet" xmlns="http://www.w3.org/2000/svg">
<g clip-path="url(#clip0_295_13078)">
<path d="M28.4805 15.5195C27.9169 15.5195 27.4609 15.0636 27.4609 14.5C27.4609 12.8178 27.1324 11.1865 26.4811 9.64873C25.8545 8.16831 24.9476 6.82296 23.8104 5.68672C22.6755 4.54801 21.3298 3.64096 19.8484 3.01611C18.3135 2.36758 16.6822 2.03906 15 2.03906C14.4364 2.03906 13.9805 1.58311 13.9805 1.01953C13.9805 0.455957 14.4364 0 15 0C16.9569 0 18.8572 0.382324 20.6442 1.14131C22.3718 1.86914 23.9209 2.91699 25.252 4.24805C26.583 5.5791 27.628 7.13105 28.3587 8.85576C29.1148 10.6428 29.4972 12.5431 29.4972 14.5C29.5 15.0636 29.044 15.5195 28.4805 15.5195Z" />
</g>
<defs>
<clipPath id="clip0_295_13078">
<rect width="29" height="29" transform="translate(0.5)"/>
</clipPath>
</defs>
</svg>
