<svg viewBox="0 0 39 39" stroke-width='0' xmlns="http://www.w3.org/2000/svg">
<path d="M37.2587 19.5C38.2204 19.5 39.0081 18.7188 38.9223 17.7609C38.7007 15.286 38.0076 12.8707 36.8746 10.6472C35.4776 7.90529 33.4514 5.53296 30.9618 3.72417C28.4722 1.91538 25.5899 0.721473 22.5505 0.240077C19.5111 -0.241319 16.4009 0.00345921 13.4742 0.954398C10.5475 1.90534 7.8874 3.53544 5.71142 5.71142C3.53544 7.8874 1.90534 10.5475 0.954397 13.4742C0.0034588 16.4009 -0.241319 19.5111 0.240078 22.5505C0.63046 25.0152 1.4894 27.3767 2.76484 29.5092C3.25848 30.3346 4.3549 30.5036 5.13295 29.9383C5.911 29.373 6.07422 28.2879 5.5967 27.4531C4.63539 25.7726 3.98427 23.9274 3.6799 22.0057C3.28448 19.5091 3.48554 16.9544 4.26664 14.5504C5.04774 12.1464 6.38671 9.96141 8.17406 8.17406C9.96141 6.38671 12.1464 5.04774 14.5504 4.26664C16.9544 3.48554 19.5091 3.28448 22.0057 3.6799C24.5022 4.07532 26.8698 5.05599 28.9147 6.54173C30.9597 8.02747 32.624 9.9761 33.7715 12.2283C34.6548 13.9619 35.2127 15.8374 35.4227 17.7621C35.5271 18.7181 36.2969 19.5 37.2587 19.5Z" />
</svg>
