<svg preserveAspectRatio="xMidYMid meet" viewBox="0 0 13 14" stroke-width='0' xmlns="http://www.w3.org/2000/svg">
<path fill-rule="evenodd" clip-rule="evenodd" d="M4.27951 0.573C4.42655 0.664185 4.516 0.824907 4.516 0.997925C4.516 3.7572 5.20007 5.72806 6.48482 7.01288C7.76956 8.2977 9.74041 8.98193 12.5 8.98193C12.6729 8.98193 12.8336 9.0713 12.9248 9.21825C13.016 9.36519 13.0248 9.54883 12.9481 9.70382C12.2642 11.0847 11.1335 12.1937 9.73957 12.8505C8.34568 13.5074 6.77059 13.6735 5.27034 13.3219C3.77008 12.9702 2.43286 12.1215 1.47603 10.9136C0.51924 9.70586 -0.000948413 8.20999 1.29811e-06 6.66916C-0.000282748 5.39712 0.354705 4.15029 1.02496 3.06916C1.69526 1.98796 2.65422 1.11548 3.79376 0.550034C3.94874 0.473129 4.13247 0.481815 4.27951 0.573ZM1.29811e-06 6.66916C1.35772e-06 6.66909 1.38752e-06 6.66901 1.44712e-06 6.66893L0.5 6.66926L1.35772e-06 6.66939C1.35772e-06 6.66931 1.29811e-06 6.66924 1.29811e-06 6.66916ZM3.53799 1.85638C2.87108 2.31261 2.30376 2.90429 1.87488 3.59607C1.30273 4.51895 0.999723 5.58329 1 6.66913V6.66958C0.999147 7.98484 1.44316 9.26173 2.25988 10.2927C3.07659 11.3237 4.21799 12.0481 5.49854 12.3482C6.7791 12.6484 8.12352 12.5066 9.3133 11.9459C10.2571 11.5012 11.0595 10.8136 11.6424 9.95998C9.13954 9.82861 7.16254 9.1049 5.77769 7.71997C4.39301 6.33521 3.66946 4.35851 3.53799 1.85638Z" />
</svg>
