<svg width="24" height="24" viewBox="0 0 24 24" fill="none" stroke-width="1.5" stroke-linecap="round" stroke-linejoin="round" xmlns="http://www.w3.org/2000/svg">
<path d="M20.9887 11.1103C21.449 11.6417 21.449 12.3591 20.9887 12.8897C19.5391 14.5603 16.0612 18 12.0007 18C7.94024 18 4.46232 14.5603 3.0127 12.8897C2.78879 12.6353 2.66724 12.3222 2.66724 12C2.66724 11.6778 2.78879 11.3647 3.0127 11.1103C4.46232 9.43971 7.94024 6 12.0007 6C16.0612 6 19.5391 9.43971 20.9887 11.1103V11.1103Z" />
<path d="M11.9862 14.4762C13.4513 14.4762 14.639 13.325 14.639 11.9048C14.639 10.4846 13.4513 9.33337 11.9862 9.33337C10.5212 9.33337 9.3335 10.4846 9.3335 11.9048C9.3335 13.325 10.5212 14.4762 11.9862 14.4762Z" />
</svg>
