<svg preserveAspectRatio="xMidYMid meet" viewBox="0 0 16 10" xmlns="http://www.w3.org/2000/svg">
<path fill="none" d="M14.7416 4.33271C15.0868 4.73129 15.0868 5.26936 14.7416 5.66729C13.6544 6.92021 11.046 9.5 8.0006 9.5C4.95524 9.5 2.3468 6.92021 1.25959 5.66729C1.09165 5.47644 1.00049 5.24166 1.00049 5C1.00049 4.75834 1.09165 4.52356 1.25959 4.33271C2.3468 3.07979 4.95524 0.5 8.0006 0.5C11.046 0.5 13.6544 3.07979 14.7416 4.33271V4.33271Z" stroke-linecap="round" stroke-linejoin="round"/>
<path fill="none" d="M7.98957 6.85714C9.08837 6.85714 9.97913 5.99369 9.97913 4.92857C9.97913 3.86345 9.08837 3 7.98957 3C6.89076 3 6 3.86345 6 4.92857C6 5.99369 6.89076 6.85714 7.98957 6.85714Z" stroke-linecap="round" stroke-linejoin="round"/>
</svg>
