<svg preserveAspectRatio="xMidYMid meet" viewBox="0 0 20 12" stroke="none" stroke-width='0' xmlns="http://www.w3.org/2000/svg">
<path d="M7.40135 11.4065L4.92391 7.90085C4.6452 7.93201 4.35616 7.94759 4.05681 7.94759H1.14582V11.4065H0V0.5H4.05681C5.44004 0.5 6.52392 0.832389 7.30845 1.49717C8.09297 2.16195 8.48523 3.07601 8.48523 4.23938C8.48523 5.09112 8.26845 5.81303 7.8349 6.4051C7.41167 6.98678 6.80264 7.40746 6.00779 7.66714L8.65555 11.4065H7.40135ZM4.02584 6.966C5.0994 6.966 5.92005 6.7271 6.48779 6.24929C7.05554 5.77148 7.33941 5.10151 7.33941 4.23938C7.33941 3.35647 7.05554 2.6813 6.48779 2.21388C5.92005 1.73607 5.0994 1.49717 4.02584 1.49717H1.14582V6.966H4.02584Z" />
<path d="M15.5561 11.5C14.1522 11.5 13.058 11.0949 12.2735 10.2847C11.489 9.4745 11.0967 8.29556 11.0967 6.74787V0.5H12.2425V6.70113C12.2425 7.96837 12.5264 8.9136 13.0941 9.53683C13.6619 10.1601 14.4825 10.4717 15.5561 10.4717C16.64 10.4717 17.4658 10.1601 18.0335 9.53683C18.6013 8.9136 18.8852 7.96837 18.8852 6.70113V0.5H20V6.74787C20 8.29556 19.6077 9.4745 18.8232 10.2847C18.049 11.0949 16.96 11.5 15.5561 11.5Z" />
</svg>
